# xmcd
#
# Track frame offsets:
#	150
#	30069
#	46482
#	70261
#	83206
#	110179
#	135626
#	151223
#	168236
#	180699
#	200365
#	213615
#	235433
#
# Disc length: 3405 seconds
#
# Revision: 0
# Processed by: cddbd v1.5.2PL0 Copyright (c) Steve Scherf et al.
# Submitted via: AudioConverter v7.0 Copyright (c) D.R. Software
#
DISCID=b10d4b0d
DTITLE=RICK STEFFEN - BLACK COCONUTS
DYEAR=2019
DGENRE=Blues
TTITLE0=BLACK COCONUTS
TTITLE1=DEAD CELLPHONE BLUES
TTITLE2=GOOD MAN GOIN DOWN
TTITLE3=FISHIN and DRINKIN
TTITLE4=RUSTY OLD HEART
TTITLE5=HURRICANE
TTITLE6=CARIBBEAN BLUES
TTITLE7=BURNED OUT BROKE and DISGUSTED
TTITLE8=GIVEN HALF A CHANCE
TTITLE9=MISSIN YOU THIS MORNIN
TTITLE10=IT ONLY HURTS TIL NEXT TIME
TTITLE11=THE ONLY CONSTANT IS CHANGE
TTITLE12=GIVE TIL IT HURTS
EXTD=
EXTT0=BLACK COCONUTS
EXTT1=DEAD CELLPHONE BLUES
EXTT2=GOOD MAN GOIN DOWN
EXTT3=FISHIN and DRINKIN
EXTT4=RUSTY OLD HEART
EXTT5=HURRICANE
EXTT6=CARIBBEAN BLUES
EXTT7=BURNED OUT BROKE and DISGUSTED
EXTT8=GIVEN HALF A CHANCE
EXTT9=MISSIN YOU THIS MORNIN
EXTT10=IT ONLY HURTS TIL NEXT TIME
EXTT11=THE ONLY CONSTANT IS CHANGE
EXTT12=GIVE TIL IT HURTS
PLAYORDER=
